<?xml version="1.0" encoding="utf-8"?>
<svg viewBox="0 0 93 127" xmlns="http://www.w3.org/2000/svg">
  <path d="M 56.01 65.3 C 53.56 65.3 51.187 65.613 48.925 66.197 L 48.925 23.468 C 48.925 15.732 42.39 9.439 34.359 9.439 L 26.885 9.439 C 18.852 9.439 12.319 15.732 12.319 23.468 L 12.319 79.863 C 8.333 84.178 6.153 89.677 6.153 95.505 C 6.153 101.862 8.742 107.821 13.441 112.285 C 18.057 116.67 24.145 119.073 30.618 119.073 C 30.735 119.073 30.851 119.071 30.968 119.071 C 35.576 119.008 39.993 117.708 43.803 115.344 C 47.482 117.113 51.627 118.111 56.01 118.111 C 71.126 118.111 83.424 106.266 83.424 91.705 C 83.424 77.145 71.126 65.3 56.01 65.3 Z M 56.01 111.058 C 44.932 111.058 35.919 102.376 35.919 91.705 C 35.919 81.035 44.932 72.355 56.01 72.355 C 67.089 72.355 76.101 81.035 76.101 91.705 C 76.101 102.376 67.089 111.058 56.01 111.058 Z M 19.641 23.468 C 19.641 19.62 22.89 16.491 26.885 16.491 L 34.359 16.491 C 38.353 16.491 41.603 19.62 41.603 23.468 L 41.603 48.508 L 41.603 69.25 C 38.782 70.937 36.301 73.1 34.282 75.625 L 34.282 26.272 C 34.282 24.324 32.644 22.746 30.621 22.746 C 28.601 22.746 26.96 24.324 26.96 26.272 L 26.96 89.442 C 24.795 90.658 23.339 92.917 23.339 95.505 C 23.339 99.379 26.6 102.519 30.621 102.519 C 30.749 102.519 30.873 102.517 30.998 102.51 C 32.459 105.635 34.535 108.441 37.074 110.781 C 35.147 111.549 33.053 111.989 30.868 112.019 C 26.231 112.082 21.876 110.392 18.584 107.265 C 15.29 104.136 13.475 99.96 13.475 95.505 C 13.475 91.064 15.28 86.897 18.556 83.772 C 19.25 83.11 19.641 82.207 19.641 81.266 L 19.641 23.468 L 19.641 23.468 Z" fill="#0077cc" style="vector-effect: non-scaling-stroke; stroke-linecap: round;"/>
  <path d="M 54.426 99.482 C 53.974 99.869 53.481 100.188 52.953 100.432 C 52.422 100.677 51.864 100.856 51.277 100.968 C 50.689 101.083 50.128 101.14 49.586 101.14 C 48.548 101.14 47.595 100.95 46.724 100.572 C 45.857 100.196 45.112 99.695 44.49 99.072 C 43.872 98.449 43.393 97.728 43.053 96.907 C 42.714 96.088 42.547 95.233 42.547 94.348 C 42.547 93.555 42.692 92.758 42.985 91.955 C 43.278 91.153 43.713 90.437 44.288 89.805 C 44.863 89.173 45.586 88.658 46.454 88.263 C 47.325 87.866 48.346 87.667 49.517 87.667 C 50.059 87.667 50.613 87.72 51.176 87.823 C 51.74 87.928 52.282 88.093 52.799 88.32 C 53.32 88.546 53.804 88.853 54.257 89.238 C 54.705 89.627 55.092 90.101 55.406 90.669 L 58.995 88.601 C 58.204 87.301 57.003 86.243 55.389 85.433 C 53.777 84.622 51.864 84.215 49.654 84.215 C 47.781 84.215 46.112 84.508 44.644 85.092 C 43.177 85.678 41.937 86.443 40.921 87.386 C 39.905 88.329 39.133 89.4 38.604 90.597 C 38.073 91.794 37.808 93.008 37.808 94.233 C 37.808 95.517 38.095 96.777 38.67 98.013 C 39.245 99.249 40.048 100.352 41.074 101.323 C 42.101 102.294 43.325 103.084 44.745 103.686 C 46.166 104.29 47.735 104.592 49.449 104.592 C 50.421 104.592 51.411 104.487 52.427 104.281 C 53.443 104.073 54.396 103.77 55.289 103.374 C 56.178 102.978 56.98 102.493 57.69 101.918 C 58.402 101.341 58.949 100.677 59.332 99.922 L 55.507 98.083 C 55.236 98.63 54.875 99.097 54.426 99.482 Z" fill="#0077cc"/>
  <path d="M 66.466 85.297 C 66.307 85.693 66.08 86.039 65.788 86.338 C 65.494 86.634 65.135 86.87 64.714 87.045 C 64.292 87.22 63.819 87.307 63.294 87.307 C 62.756 87.307 62.277 87.22 61.855 87.045 C 61.431 86.87 61.076 86.634 60.781 86.338 C 60.487 86.039 60.264 85.693 60.113 85.297 C 59.959 84.902 59.884 84.483 59.884 84.04 C 59.884 83.608 59.959 83.196 60.113 82.799 C 60.264 82.403 60.489 82.057 60.781 81.76 C 61.076 81.462 61.431 81.225 61.855 81.043 C 62.277 80.863 62.756 80.773 63.294 80.773 C 63.832 80.773 64.311 80.863 64.733 81.043 C 65.155 81.225 65.512 81.462 65.806 81.76 C 66.099 82.057 66.321 82.403 66.475 82.799 C 66.627 83.196 66.704 83.608 66.704 84.04 C 66.704 84.483 66.625 84.902 66.466 85.297 Z M 64.422 82.747 C 64.122 82.408 63.746 82.241 63.294 82.241 C 62.84 82.241 62.462 82.407 62.157 82.739 C 61.851 83.07 61.698 83.497 61.698 84.022 C 61.698 84.558 61.851 84.992 62.157 85.324 C 62.462 85.656 62.84 85.822 63.294 85.822 C 63.746 85.822 64.122 85.656 64.422 85.324 C 64.72 84.992 64.87 84.563 64.87 84.04 C 64.87 83.515 64.72 83.085 64.422 82.747 Z" fill="#0077cc" transform="matrix(-1, 0, 0, -1, 126.588003, 168.080004)"/>
</svg>